<svg xmlns="http://www.w3.org/2000/svg" xmlns:xlink="http://www.w3.org/1999/xlink" viewBox="0 0 292.2 176.84"><defs><style>.cls-1{fill:url(#linear-gradient);}.cls-2{fill:url(#linear-gradient-2);}.cls-3{font-size:34px;fill:#edb658;font-family:Roboto-Light, Roboto;font-weight:300;}.cls-4{letter-spacing:-0.01em;}</style><linearGradient id="linear-gradient" x1="-23.72" y1="23.72" x2="124.8" y2="172.24" gradientUnits="userSpaceOnUse"><stop offset="0.01" stop-color="#edb658"/><stop offset="1" stop-color="#c1993e"/></linearGradient><linearGradient id="linear-gradient-2" x1="-159.01" y1="-12.71" x2="77.74" y2="224.05" gradientTransform="matrix(-0.41, 0, 0, 1, 222.63, 0)" xlink:href="#linear-gradient"/></defs><g id="Layer_2" data-name="Layer 2"><g id="Layer_1-2" data-name="Layer 1"><polygon class="cls-1" points="0 0 18.6 114.92 47 163.98 82.8 176.84 120.2 176.84 82.8 163.98 58.6 146.57 58.4 96.94 47.2 131.54 35.6 107.21 30.4 8.31 25.6 93.36 14.6 22.35 14.2 48.66 0 0"/><polygon class="cls-2" points="292.2 0 273.6 114.92 245.2 163.98 209.4 176.84 172 176.84 209.4 163.98 233.6 146.57 233.8 96.94 245 131.54 256.6 107.21 261.8 8.31 266.6 93.36 277.6 22.35 278 48.66 292.2 0"/><text class="cls-3" transform="translate(45.84 86.88)"><tspan class="cls-4">F</tspan><tspan x="18.76" y="0">ullstackmac</tspan></text></g></g></svg>